<svg width="160" height="160" viewBox="0 0 160 160" fill="none" xmlns="http://www.w3.org/2000/svg">
<path d="M122.2 18.5H23.65C16.1 18.5 10 24.6 10 32.15V45.45H135.85V32.15C135.85 24.6 129.75 18.5 122.2 18.5ZM29.29 35.86C27.145 35.86 25.405 34.12 25.405 31.975C25.405 29.83 27.145 28.09 29.29 28.09C31.435 28.09 33.175 29.83 33.175 31.975C33.175 34.12 31.435 35.86 29.29 35.86ZM42.98 35.86C40.835 35.86 39.095 34.12 39.095 31.975C39.095 29.83 40.835 28.09 42.98 28.09C45.125 28.09 46.865 29.83 46.865 31.975C46.865 34.12 45.125 35.86 42.98 35.86ZM56.67 35.86C54.525 35.86 52.785 34.12 52.785 31.975C52.785 29.83 54.525 28.09 56.67 28.09C58.815 28.09 60.555 29.83 60.555 31.975C60.555 34.12 58.815 35.86 56.67 35.86Z" fill="white"/>
<path d="M88.205 124.215L88.555 123.61L87.88 123.43C83.93 122.37 81.175 118.78 81.175 114.695V107.02C81.175 102.935 83.93 99.3452 87.875 98.2852L88.555 98.1052L88.205 97.5052C86.175 93.9802 86.755 89.5052 89.61 86.6152L95.07 81.1602C96.775 79.4502 99.045 78.5152 101.46 78.5152C103.03 78.5152 104.59 78.9302 105.955 79.7102L106.585 80.0702L106.765 79.3902C107.825 75.4502 111.415 72.6952 115.495 72.6952H123.175C127.255 72.6952 130.845 75.4502 131.905 79.3902L132.085 80.0702L132.695 79.7202C133.675 79.1602 134.75 78.8652 135.845 78.6952V52.9502H10V112.7C10 120.25 16.1 126.35 23.65 126.35H87.405C87.605 125.62 87.815 124.89 88.205 124.215Z" fill="white"/>
<path d="M148.86 105.53L144.055 104.24C143.485 102.085 142.64 100.01 141.5 98.0404L143.98 93.7454C144.33 93.1404 144.23 92.3804 143.735 91.8854L138.305 86.4554C137.815 85.9654 137.05 85.8604 136.445 86.2104L132.15 88.6904C130.18 87.5554 128.1 86.7104 125.95 86.1354L124.66 81.3304C124.48 80.6554 123.87 80.1904 123.175 80.1904H115.5C114.805 80.1904 114.195 80.6604 114.015 81.3304L112.725 86.1354C110.575 86.7054 108.495 87.5504 106.525 88.6854L102.23 86.2054C101.625 85.8554 100.865 85.9604 100.37 86.4504L94.94 91.8804C94.445 92.3754 94.345 93.1354 94.695 93.7404L97.17 98.0304C96.03 100.005 95.185 102.08 94.615 104.235L89.815 105.525C89.14 105.705 88.675 106.315 88.675 107.01V114.685C88.675 115.38 89.145 115.99 89.815 116.17L94.62 117.46C95.19 119.615 96.035 121.69 97.175 123.665L94.695 127.96C94.345 128.565 94.445 129.325 94.94 129.82L100.37 135.25C100.865 135.745 101.625 135.845 102.23 135.495L106.525 133.015C108.495 134.155 110.575 134.995 112.725 135.57L114.015 140.375C114.195 141.05 114.805 141.515 115.5 141.515H123.175C123.87 141.515 124.48 141.045 124.66 140.375L125.95 135.57C128.1 135 130.18 134.155 132.15 133.015L136.445 135.495C137.05 135.845 137.81 135.745 138.305 135.25L143.735 129.82C144.23 129.325 144.33 128.565 143.98 127.96L141.5 123.67C142.64 121.695 143.485 119.62 144.055 117.465L148.86 116.175C149.53 116 150 115.39 150 114.695V107.02C150 106.32 149.53 105.71 148.86 105.53ZM131.15 122.665C124.645 129.17 114.04 129.19 107.525 122.665C101.01 116.15 101.01 105.555 107.52 99.0404C110.775 95.7854 115.055 94.1554 119.335 94.1554C123.605 94.1554 127.89 95.7804 131.14 99.0404C137.66 105.555 137.66 116.15 131.15 122.665Z" fill="white"/>
</svg>
